<?xml version="1.0" encoding="UTF-8" ?>
<!DOCTYPE svg PUBLIC "-//W3C//DTD SVG 1.1//EN" "http://www.w3.org/Graphics/SVG/1.1/DTD/svg11.dtd">
<svg width="1600pt" height="570pt" viewBox="0 0 1600 570" version="1.1" xmlns="http://www.w3.org/2000/svg">
<path fill="#ffffff" d=" M 0.00 0.00 L 1600.00 0.00 L 1600.00 395.03 C 1592.31 395.01 1584.66 394.98 1577.01 394.98 C 1577.01 378.40 1577.09 361.82 1576.72 345.25 C 1570.89 344.29 1567.61 340.41 1565.79 335.26 C 1553.89 334.99 1542.01 334.98 1530.14 335.00 C 1529.79 337.91 1530.06 340.96 1529.87 343.91 C 1526.16 343.96 1518.74 344.07 1515.03 344.12 C 1515.00 361.08 1514.98 378.04 1514.98 395.00 C 1502.99 395.00 1491.01 395.00 1479.04 395.00 C 1479.00 385.34 1478.98 375.68 1478.98 366.03 C 1475.00 364.23 1471.07 362.44 1467.10 360.67 C 1466.70 342.13 1467.75 323.56 1466.72 305.05 C 1464.86 299.89 1460.06 296.30 1455.40 293.79 C 1440.87 292.16 1426.10 292.20 1411.59 293.76 C 1406.59 297.49 1399.49 301.75 1400.27 309.03 C 1399.29 337.70 1400.41 366.40 1399.96 395.09 C 1398.36 394.96 1395.16 394.71 1393.55 394.58 C 1369.98 297.00 1362.17 195.39 1373.19 95.51 C 1380.76 94.27 1388.42 92.98 1395.65 90.30 C 1392.99 87.32 1390.34 84.31 1387.88 81.17 C 1393.22 80.11 1398.56 78.97 1403.90 77.85 C 1403.93 77.12 1403.97 75.65 1403.99 74.92 C 1399.01 74.14 1394.04 73.42 1389.08 72.71 C 1390.60 69.81 1392.39 66.93 1392.86 63.63 C 1384.19 60.56 1375.05 59.56 1366.00 58.39 C 1366.90 54.99 1367.95 51.60 1369.00 48.23 C 1365.15 46.07 1361.59 43.33 1357.40 41.85 C 1355.40 41.03 1352.96 40.49 1351.89 38.38 C 1350.52 27.84 1350.22 17.21 1349.51 6.62 C 1348.91 18.21 1348.52 29.88 1346.46 41.32 C 1340.17 41.20 1335.07 44.93 1330.01 48.11 C 1331.94 51.26 1333.37 54.68 1334.23 58.28 C 1324.00 59.42 1313.58 60.48 1303.98 64.42 C 1306.29 67.18 1308.83 69.74 1311.41 72.25 C 1305.92 73.02 1300.46 73.92 1295.02 74.88 C 1295.03 75.65 1295.06 77.19 1295.07 77.95 C 1300.57 78.82 1306.07 79.71 1311.61 80.51 C 1309.98 84.02 1308.24 87.45 1306.52 90.90 C 1312.23 92.20 1317.90 93.52 1323.67 94.73 C 1328.02 129.31 1329.35 164.19 1329.77 199.01 C 1328.94 234.85 1327.81 270.95 1321.74 306.35 C 1321.01 303.79 1319.54 298.69 1318.80 296.13 C 1306.43 294.08 1296.27 302.05 1285.42 306.39 C 1285.27 304.55 1284.99 300.88 1284.85 299.05 C 1284.14 299.03 1282.72 298.98 1282.01 298.96 C 1281.96 330.97 1282.03 362.98 1281.99 395.00 C 1280.66 394.99 1279.34 394.99 1278.03 395.00 C 1277.99 386.29 1277.97 377.59 1277.96 368.89 C 1267.93 368.94 1257.84 368.42 1247.90 369.57 C 1247.03 370.74 1245.30 373.09 1244.43 374.26 C 1240.60 374.55 1236.85 374.85 1233.07 375.15 C 1233.01 363.75 1232.90 352.35 1232.81 340.96 C 1228.24 339.69 1223.78 338.05 1219.18 336.97 C 1213.29 337.06 1207.34 338.88 1201.59 336.74 C 1199.57 338.06 1197.31 339.31 1195.37 340.62 C 1195.23 332.06 1195.32 323.50 1194.83 314.96 C 1195.41 308.96 1191.65 304.11 1189.45 298.90 C 1179.24 297.12 1169.32 293.99 1159.10 292.34 C 1159.01 284.23 1158.96 276.11 1158.93 268.01 C 1143.61 267.99 1128.31 267.98 1113.01 268.01 C 1112.96 310.34 1113.03 352.66 1113.00 395.00 C 1111.65 394.99 1110.31 394.99 1108.99 395.00 C 1109.06 383.31 1109.46 371.62 1108.92 359.94 C 1109.78 354.59 1106.13 350.45 1103.98 346.05 C 1094.81 346.03 1085.67 346.00 1076.53 345.96 C 1076.03 339.27 1076.08 332.47 1074.76 325.90 C 1067.76 313.19 1055.13 304.28 1041.57 299.66 C 1037.86 297.03 1035.00 300.36 1032.47 302.24 C 1026.07 307.34 1019.62 312.44 1014.15 318.56 C 1004.68 316.00 994.80 315.92 985.08 315.74 C 984.99 310.60 984.91 305.47 984.85 300.34 C 972.62 299.17 961.12 294.55 949.44 291.07 C 941.22 288.03 933.64 293.19 926.16 295.56 C 926.08 307.91 925.94 320.27 925.90 332.63 C 920.93 331.69 915.97 331.02 911.12 329.64 C 908.88 330.62 906.54 331.53 904.36 332.51 C 904.22 335.14 903.94 340.39 903.80 343.01 C 900.33 342.95 893.38 342.83 889.91 342.76 C 888.21 338.15 886.27 333.63 884.32 329.13 C 883.86 331.35 882.93 335.79 882.46 338.02 C 867.70 333.63 852.85 328.33 839.72 320.18 C 838.74 311.83 838.89 303.41 838.78 295.02 C 823.65 283.49 808.22 272.38 793.10 260.84 C 787.49 256.34 779.69 257.47 773.08 256.14 C 772.98 273.03 772.98 289.92 772.96 306.82 C 769.00 306.92 765.05 307.03 761.12 307.14 C 761.06 309.65 761.03 312.16 761.02 314.68 C 757.91 313.25 754.69 311.88 751.35 311.15 C 740.58 321.77 741.94 338.11 741.82 352.00 C 739.21 352.00 736.60 351.99 734.01 352.00 C 734.07 325.41 733.80 298.83 734.19 272.25 C 721.52 263.38 703.79 265.39 691.01 272.98 C 690.96 308.65 691.03 344.32 691.00 379.99 C 690.25 379.99 688.76 380.00 688.01 380.01 C 688.00 365.03 687.98 350.06 687.98 335.09 C 681.32 335.03 674.66 334.97 668.02 334.91 C 667.75 286.71 668.46 238.51 667.65 190.32 C 657.67 187.13 652.29 177.82 645.33 170.72 C 639.10 177.93 633.33 185.93 624.59 190.31 C 623.73 202.85 625.17 215.85 621.26 227.99 C 612.17 227.99 603.09 228.01 594.02 228.03 C 594.03 239.68 593.95 251.34 593.97 263.00 C 589.29 262.99 584.66 263.00 580.01 263.00 C 579.97 247.08 579.90 231.17 580.28 215.25 C 577.48 214.28 574.71 212.25 571.60 212.84 C 560.16 214.65 548.58 215.24 537.02 215.38 C 537.01 231.21 536.99 247.03 536.97 262.86 C 534.30 262.95 531.64 263.05 528.98 263.15 C 527.79 286.95 532.66 311.90 524.59 334.90 C 517.73 334.92 510.87 334.96 504.02 335.03 C 504.08 323.35 504.45 311.66 503.73 299.99 C 503.88 291.57 498.62 284.31 498.35 275.94 C 497.19 261.34 497.69 246.61 499.52 232.09 C 495.42 230.72 490.55 230.93 487.13 227.97 C 482.64 224.21 479.21 219.35 474.64 215.66 C 473.47 196.11 474.48 176.52 473.91 156.96 C 473.60 152.40 473.82 147.03 470.22 143.62 C 462.52 142.83 454.77 143.14 447.06 143.33 C 445.62 144.94 444.14 146.52 442.62 148.05 C 442.03 161.00 441.92 173.97 441.71 186.93 C 437.35 188.30 433.16 190.10 429.02 192.02 C 429.04 206.91 429.79 221.90 427.79 236.71 C 422.29 269.18 426.08 302.26 424.98 335.00 C 419.65 335.00 414.33 335.00 409.01 335.00 C 409.00 305.00 408.90 275.00 409.14 245.00 C 408.93 233.01 409.94 220.59 405.66 209.13 C 397.41 206.91 390.35 202.05 382.58 198.72 C 383.53 195.75 384.70 192.86 385.94 190.00 C 371.46 189.95 356.99 189.97 342.52 189.97 C 345.34 202.43 345.18 215.30 345.14 228.00 C 344.90 254.00 345.04 280.01 344.99 306.02 C 338.33 305.98 331.68 305.98 325.03 306.01 C 325.06 293.75 324.93 281.49 324.94 269.24 C 314.70 267.06 304.48 264.71 294.07 263.47 C 294.03 252.14 293.96 240.81 293.93 229.49 C 279.66 228.23 265.16 224.97 251.02 229.23 C 250.65 207.55 251.80 185.84 250.67 164.18 C 250.30 161.57 247.10 160.46 245.58 158.75 C 230.75 149.94 212.96 150.99 196.45 148.88 C 192.37 173.55 192.62 198.58 192.97 223.51 C 182.46 225.13 172.02 227.18 161.48 228.61 C 163.47 241.01 166.63 253.31 166.15 265.99 C 165.89 308.99 166.04 351.98 166.00 394.98 C 165.25 394.99 163.75 395.01 163.00 395.02 C 162.68 366.68 163.57 338.33 162.83 310.00 C 164.00 304.13 158.37 300.59 154.12 297.99 C 144.38 296.08 134.23 296.38 124.41 297.58 C 119.67 300.02 113.15 303.49 114.26 310.03 C 113.33 330.34 114.25 350.68 114.00 371.00 C 109.33 370.99 104.66 371.00 99.98 371.00 C 99.86 352.65 100.46 334.30 99.89 315.96 C 99.52 311.35 99.66 306.53 97.85 302.19 C 93.46 291.53 88.55 281.09 83.72 270.62 C 78.43 281.49 72.93 292.33 68.59 303.63 C 65.78 317.50 67.24 331.86 66.91 345.93 C 58.66 345.98 50.41 346.02 42.17 346.08 C 42.07 350.04 41.99 354.01 41.90 357.98 C 27.93 358.00 13.97 358.01 0.00 358.01 L 0.00 0.00 Z" />
<path fill="#6b7c8e" d=" M 1349.51 6.62 C 1350.22 17.21 1350.52 27.84 1351.89 38.38 C 1352.96 40.49 1355.40 41.03 1357.40 41.85 C 1361.59 43.33 1365.15 46.07 1369.00 48.23 C 1367.95 51.60 1366.90 54.99 1366.00 58.39 C 1375.05 59.56 1384.19 60.56 1392.86 63.63 C 1392.39 66.93 1390.60 69.81 1389.08 72.71 C 1394.04 73.42 1399.01 74.14 1403.99 74.92 C 1403.97 75.65 1403.93 77.12 1403.90 77.85 C 1398.56 78.97 1393.22 80.11 1387.88 81.17 C 1390.34 84.31 1392.99 87.32 1395.65 90.30 C 1388.42 92.98 1380.76 94.27 1373.19 95.51 C 1362.17 195.39 1369.98 297.00 1393.55 394.58 C 1395.16 394.71 1398.36 394.96 1399.96 395.09 C 1400.41 366.40 1399.29 337.70 1400.27 309.03 C 1399.49 301.75 1406.59 297.49 1411.59 293.76 C 1426.10 292.20 1440.87 292.16 1455.40 293.79 C 1460.06 296.30 1464.86 299.89 1466.72 305.05 C 1467.75 323.56 1466.70 342.13 1467.10 360.67 C 1471.07 362.44 1475.00 364.23 1478.98 366.03 C 1478.98 375.68 1479.00 385.34 1479.04 395.00 C 1491.01 395.00 1502.99 395.00 1514.98 395.00 C 1514.98 378.04 1515.00 361.08 1515.03 344.12 C 1518.74 344.07 1526.16 343.96 1529.87 343.91 C 1530.06 340.96 1529.79 337.91 1530.14 335.00 C 1542.01 334.98 1553.89 334.99 1565.79 335.26 C 1567.61 340.41 1570.89 344.29 1576.72 345.25 C 1577.09 361.82 1577.01 378.40 1577.01 394.98 C 1584.66 394.98 1592.31 395.01 1600.00 395.03 L 1600.00 570.00 L 0.00 570.00 L 0.00 358.01 C 13.97 358.01 27.93 358.00 41.90 357.98 C 41.99 354.01 42.07 350.04 42.17 346.08 C 50.41 346.02 58.66 345.98 66.91 345.93 C 67.24 331.86 65.78 317.50 68.59 303.63 C 72.93 292.33 78.43 281.49 83.72 270.62 C 88.55 281.09 93.46 291.53 97.85 302.19 C 99.66 306.53 99.52 311.35 99.89 315.96 C 100.46 334.30 99.86 352.65 99.98 371.00 C 104.66 371.00 109.33 370.99 114.00 371.00 C 114.25 350.68 113.33 330.34 114.26 310.03 C 113.15 303.49 119.67 300.02 124.41 297.58 C 134.23 296.38 144.38 296.08 154.12 297.99 C 158.37 300.59 164.00 304.13 162.83 310.00 C 163.57 338.33 162.68 366.68 163.00 395.02 C 163.75 395.01 165.25 394.99 166.00 394.98 C 166.04 351.98 165.89 308.99 166.15 265.99 C 166.63 253.31 163.47 241.01 161.48 228.61 C 172.02 227.18 182.46 225.13 192.97 223.51 C 192.62 198.58 192.37 173.55 196.45 148.88 C 212.96 150.99 230.75 149.94 245.58 158.75 C 247.10 160.46 250.30 161.57 250.67 164.18 C 251.80 185.84 250.65 207.55 251.02 229.23 C 265.16 224.97 279.66 228.23 293.93 229.49 C 293.96 240.81 294.03 252.14 294.07 263.47 C 304.48 264.71 314.70 267.06 324.94 269.24 C 324.93 281.49 325.06 293.75 325.03 306.01 C 331.68 305.98 338.33 305.98 344.99 306.02 C 345.04 280.01 344.90 254.00 345.14 228.00 C 345.18 215.30 345.34 202.43 342.52 189.97 C 356.99 189.97 371.46 189.95 385.94 190.00 C 384.70 192.86 383.53 195.75 382.58 198.72 C 390.35 202.05 397.41 206.91 405.66 209.13 C 409.94 220.59 408.93 233.01 409.14 245.00 C 408.90 275.00 409.00 305.00 409.01 335.00 C 414.33 335.00 419.65 335.00 424.98 335.00 C 426.08 302.26 422.29 269.18 427.79 236.71 C 429.79 221.90 429.04 206.91 429.02 192.02 C 433.16 190.10 437.35 188.30 441.71 186.93 C 441.92 173.97 442.03 161.00 442.62 148.05 C 444.14 146.52 445.62 144.94 447.06 143.33 C 454.77 143.14 462.52 142.83 470.22 143.62 C 473.82 147.03 473.60 152.40 473.91 156.96 C 474.48 176.52 473.47 196.11 474.64 215.66 C 479.21 219.35 482.64 224.21 487.13 227.97 C 490.55 230.93 495.42 230.72 499.52 232.09 C 497.69 246.61 497.19 261.34 498.35 275.94 C 498.62 284.31 503.88 291.57 503.73 299.99 C 504.45 311.66 504.08 323.35 504.02 335.03 C 510.87 334.96 517.73 334.92 524.59 334.90 C 532.66 311.90 527.79 286.95 528.98 263.15 C 531.64 263.05 534.30 262.95 536.97 262.86 C 536.99 247.03 537.01 231.21 537.02 215.38 C 548.58 215.24 560.16 214.65 571.60 212.84 C 574.71 212.25 577.48 214.28 580.28 215.25 C 579.90 231.17 579.97 247.08 580.01 263.00 C 584.66 263.00 589.29 262.99 593.97 263.00 C 593.95 251.34 594.03 239.68 594.02 228.03 C 603.09 228.01 612.17 227.99 621.26 227.99 C 625.17 215.85 623.73 202.85 624.59 190.31 C 633.33 185.93 639.10 177.93 645.33 170.72 C 652.29 177.82 657.67 187.13 667.65 190.32 C 668.46 238.51 667.75 286.71 668.02 334.91 C 674.66 334.97 681.32 335.03 687.98 335.09 C 687.98 350.06 688.00 365.03 688.01 380.01 C 688.76 380.00 690.25 379.99 691.00 379.99 C 691.03 344.32 690.96 308.65 691.01 272.98 C 703.79 265.39 721.52 263.38 734.19 272.25 C 733.80 298.83 734.07 325.41 734.01 352.00 C 736.60 351.99 739.21 352.00 741.82 352.00 C 741.94 338.11 740.58 321.77 751.35 311.15 C 754.69 311.88 757.91 313.25 761.02 314.68 C 761.03 312.16 761.06 309.65 761.12 307.14 C 765.05 307.03 769.00 306.92 772.96 306.82 C 772.98 289.92 772.98 273.03 773.08 256.14 C 779.69 257.47 787.49 256.34 793.10 260.84 C 808.22 272.38 823.65 283.49 838.78 295.02 C 838.89 303.41 838.74 311.83 839.72 320.18 C 852.85 328.33 867.70 333.63 882.46 338.02 C 882.93 335.79 883.86 331.35 884.32 329.13 C 886.27 333.63 888.21 338.15 889.91 342.76 C 893.38 342.83 900.33 342.95 903.80 343.01 C 903.94 340.39 904.22 335.14 904.36 332.51 C 906.54 331.53 908.88 330.62 911.12 329.64 C 915.97 331.02 920.93 331.69 925.90 332.63 C 925.94 320.27 926.08 307.91 926.16 295.56 C 933.64 293.19 941.22 288.03 949.44 291.07 C 961.12 294.55 972.62 299.17 984.85 300.34 C 984.91 305.47 984.99 310.60 985.08 315.74 C 994.80 315.92 1004.68 316.00 1014.15 318.56 C 1019.62 312.44 1026.07 307.34 1032.47 302.24 C 1035.00 300.36 1037.86 297.03 1041.57 299.66 C 1055.13 304.28 1067.76 313.19 1074.76 325.90 C 1076.08 332.47 1076.03 339.27 1076.53 345.96 C 1085.67 346.00 1094.81 346.03 1103.98 346.05 C 1106.13 350.45 1109.78 354.59 1108.92 359.94 C 1109.46 371.62 1109.06 383.31 1108.99 395.00 C 1110.31 394.99 1111.65 394.99 1113.00 395.00 C 1113.03 352.66 1112.96 310.34 1113.01 268.01 C 1128.31 267.98 1143.61 267.99 1158.93 268.01 C 1158.96 276.11 1159.01 284.23 1159.10 292.34 C 1169.32 293.99 1179.24 297.12 1189.45 298.90 C 1191.65 304.11 1195.41 308.96 1194.83 314.96 C 1195.32 323.50 1195.23 332.06 1195.37 340.62 C 1197.31 339.31 1199.57 338.06 1201.59 336.74 C 1207.34 338.88 1213.29 337.06 1219.18 336.97 C 1223.78 338.05 1228.24 339.69 1232.81 340.96 C 1232.90 352.35 1233.01 363.75 1233.07 375.15 C 1236.85 374.85 1240.60 374.55 1244.43 374.26 C 1245.30 373.09 1247.03 370.74 1247.90 369.57 C 1257.84 368.42 1267.93 368.94 1277.96 368.89 C 1277.97 377.59 1277.99 386.29 1278.03 395.00 C 1279.34 394.99 1280.66 394.99 1281.99 395.00 C 1282.03 362.98 1281.96 330.97 1282.01 298.96 C 1282.72 298.98 1284.14 299.03 1284.85 299.05 C 1284.99 300.88 1285.27 304.55 1285.42 306.39 C 1296.27 302.05 1306.43 294.08 1318.80 296.13 C 1319.54 298.69 1321.01 303.79 1321.74 306.35 C 1327.81 270.95 1328.94 234.85 1329.77 199.01 C 1329.35 164.19 1328.02 129.31 1323.67 94.73 C 1317.90 93.52 1312.23 92.20 1306.52 90.90 C 1308.24 87.45 1309.98 84.02 1311.61 80.51 C 1306.07 79.71 1300.57 78.82 1295.07 77.95 C 1295.06 77.19 1295.03 75.65 1295.02 74.88 C 1300.46 73.92 1305.92 73.02 1311.41 72.25 C 1308.83 69.74 1306.29 67.18 1303.98 64.42 C 1313.58 60.48 1324.00 59.42 1334.23 58.28 C 1333.37 54.68 1331.94 51.26 1330.01 48.11 C 1335.07 44.93 1340.17 41.20 1346.46 41.32 C 1348.52 29.88 1348.91 18.21 1349.51 6.62 Z" />
<path fill="#ffffff" d=" M 1328.55 93.94 C 1332.76 94.97 1332.73 99.31 1333.39 102.64 C 1336.08 149.50 1337.18 196.51 1334.54 243.40 C 1333.67 229.27 1334.18 215.13 1334.69 201.00 C 1334.47 165.23 1332.40 129.50 1328.55 93.94 Z" />
<path fill="#ffffff" d=" M 1364.16 99.01 C 1364.41 96.53 1367.17 95.62 1368.82 94.17 C 1365.54 130.36 1363.27 166.65 1363.25 203.00 C 1363.57 214.79 1364.29 226.59 1363.71 238.38 C 1361.07 191.96 1361.54 145.41 1364.16 99.01 Z" />
<path fill="#ffffff" d=" M 1337.22 96.01 C 1338.46 96.01 1339.71 96.00 1340.97 96.00 C 1340.84 121.47 1341.46 146.95 1340.58 172.40 C 1339.66 146.93 1339.73 121.40 1337.22 96.01 Z" />
<path fill="#ffffff" d=" M 1356.99 96.00 C 1357.78 96.00 1359.34 96.00 1360.12 96.00 C 1359.21 118.66 1357.51 141.30 1357.95 164.00 L 1356.99 164.00 C 1356.98 141.33 1356.99 118.67 1356.99 96.00 Z" />
<path fill="#ffffff" d=" M 1357.01 306.00 C 1357.23 274.54 1356.49 243.06 1357.35 211.61 C 1357.73 243.12 1359.88 274.56 1362.12 305.99 L 1357.01 306.00 Z" />
<path fill="#ffffff" d=" M 1340.04 215.00 L 1341.01 215.00 C 1340.99 245.33 1341.01 275.66 1340.99 306.00 L 1335.87 305.97 C 1338.12 275.70 1340.55 245.39 1340.04 215.00 Z" />
<path fill="#ffffff" d=" M 1364.59 256.40 C 1364.40 250.80 1364.36 245.20 1364.41 239.60 C 1364.53 245.19 1364.60 250.80 1364.59 256.40 Z" />
<path fill="#ffffff" d=" M 1333.59 261.40 C 1333.41 255.80 1333.36 250.20 1333.41 244.60 C 1333.53 250.19 1333.60 255.80 1333.59 261.40 Z" />
<path fill="#ffffff" d=" M 1370.56 315.64 C 1366.57 296.27 1365.83 276.37 1365.15 256.65 C 1366.39 276.37 1369.91 295.90 1370.56 315.64 Z" />
<path fill="#ffffff" d=" M 1330.44 296.38 C 1330.41 284.76 1331.34 273.15 1332.52 261.60 C 1333.37 273.23 1332.45 284.92 1330.44 296.38 Z" />
<path fill="#ffffff" d=" M 1363.31 318.64 C 1364.24 325.41 1365.07 332.20 1366.10 338.96 C 1365.31 338.97 1363.71 339.00 1362.92 339.01 C 1362.99 332.21 1363.13 325.42 1363.31 318.64 Z" />
<path fill="#ffffff" d=" M 1370.99 318.23 C 1373.16 324.96 1374.11 332.01 1375.20 338.99 C 1374.42 338.98 1372.87 338.96 1372.09 338.95 C 1371.60 332.05 1370.66 325.16 1370.99 318.23 Z" />
<path fill="#ffffff" d=" M 1363.01 343.00 C 1364.24 343.00 1365.48 343.01 1366.74 343.03 C 1367.24 350.70 1368.26 358.32 1369.11 365.96 C 1367.58 365.97 1364.52 365.99 1362.99 366.00 C 1362.97 358.33 1362.99 350.66 1363.01 343.00 Z" />
<path fill="#ffffff" d=" M 1372.96 342.96 C 1373.69 343.00 1375.15 343.07 1375.88 343.10 C 1377.30 350.73 1378.80 358.34 1380.22 365.97 C 1378.84 365.96 1377.48 365.96 1376.13 365.96 C 1375.13 358.28 1373.99 350.63 1372.96 342.96 Z" />
<path fill="#ffffff" d=" M 1363.00 370.99 C 1364.74 371.00 1368.24 371.02 1369.98 371.03 C 1371.21 379.02 1372.54 387.00 1374.07 394.95 C 1371.30 394.96 1365.77 394.99 1363.00 395.01 C 1362.96 386.99 1363.00 378.99 1363.00 370.99 Z" />
<path fill="#ffffff" d=" M 1377.28 369.76 C 1385.63 375.58 1384.11 387.38 1386.80 396.14 C 1385.41 395.73 1382.63 394.91 1381.23 394.50 C 1378.58 386.55 1377.89 378.07 1377.28 369.76 Z" />
</svg>
